<svg class="github_svg__icon" viewBox="0 0 1024 1024" xmlns="http://www.w3.org/2000/svg" width="25" height="25"><path d="m536.509 515.037-3.426-8.128-4.172 3.41Z" fill="#FFF"></path><path d="M431.34 549.696H194.782c-21.871 0-39.667 17.796-39.667 39.667v236.554c0 21.873 17.796 39.667 39.667 39.667h236.556c21.872 0 39.666-17.794 39.666-39.667V589.363c0-21.871-17.794-39.667-39.666-39.667zm-1.134 275.085H195.918V590.498h234.288V824.78zM192.211 508.242H428.77c21.871 0 39.665-17.794 39.665-39.664V232.02c0-21.87-17.794-39.664-39.665-39.664H192.21c-21.87 0-39.664 17.793-39.664 39.664v236.558c0 21.87 17.793 39.664 39.664 39.664zm1.138-275.087h234.285v234.286H193.349V233.155zM813.097 547.127H576.541c-21.862 0-39.647 17.794-39.647 39.665v236.556c0 21.871 17.785 39.665 39.647 39.665h236.556c21.881 0 39.684-17.794 39.684-39.665V586.792c0-21.87-17.803-39.665-39.684-39.665zm-1.116 275.086H577.697V587.927H811.98v234.286zM859.526 314.328 720.943 175.746c-7.087-7.065-16.505-10.957-26.516-10.957-10.009 0-19.422 3.892-26.537 10.981L529.377 314.303c-7.11 7.09-11.026 16.523-11.026 26.562s3.915 19.474 11 26.537l138.54 138.56c7.08 7.08 16.502 10.98 26.53 10.98 10.015 0 19.436-3.892 26.547-10.98L859.55 367.38c14.598-14.642 14.586-38.44-.024-53.052zM694.429 471.414 563.901 340.865l130.528-130.547 130.548 130.547-130.548 130.549z" fill="#252135"></path><path d="M432.578 550.656h-236.95c-21.911 0-39.737 17.826-39.737 39.74v236.947c0 21.909 17.826 39.73 39.737 39.73h236.95c21.907 0 39.73-17.821 39.73-39.73V590.395c0-21.913-17.823-39.739-39.73-39.739zM193.054 509.132h236.943c21.91 0 39.737-17.824 39.737-39.73v-236.95c0-21.906-17.825-39.73-39.737-39.73H193.054c-21.91 0-39.738 17.824-39.738 39.73v236.95c.001 21.906 17.827 39.73 39.738 39.73zM814.956 548.085H578.008c-21.895 0-39.71 17.826-39.71 39.737v236.941c0 21.911 17.814 39.737 39.71 39.737h236.948c21.92 0 39.753-17.826 39.753-39.737V587.822c-.001-21.911-17.834-39.737-39.753-39.737zM861.464 314.898l-138.81-138.801c-7.098-7.083-16.533-10.983-26.565-10.983-10.027 0-19.461 3.9-26.578 11.002L530.77 314.871c-7.124 7.1-11.048 16.55-11.048 26.607 0 10.06 3.924 19.509 11.02 26.58l138.77 138.794c7.093 7.092 16.53 10.998 26.574 10.998 10.038 0 19.473-3.9 26.588-10.998L861.49 368.033c14.616-14.668 14.605-38.504-.027-53.135zM696.092 472.245 565.35 341.478l130.744-130.757L826.86 341.478 696.092 472.245z" fill="#262236"></path><path d="m537.608 518.651-3.425-8.129-4.173 3.41Z" fill="#FFF"></path></svg>