<svg class="mask_svg__icon" viewBox="0 0 1024 1024" xmlns="http://www.w3.org/2000/svg" width="16" height="16"><path d="M281.758 192.128h453.974a64.779 64.779 0 0 1 64.394 57.685l57.003 518.23a64.779 64.779 0 0 1-16.139 50.314 64.779 64.779 0 0 1-48.245 21.558H224.766a64.779 64.779 0 0 1-48.256-21.558 64.779 64.779 0 0 1-16.138-50.314l57.002-518.23a64.779 64.779 0 0 1 64.395-57.685zm65.067 194.336a161.952 161.952 0 0 0 161.952 161.941 161.952 161.952 0 0 0 161.941-161.941 32.395 32.395 0 0 0-32.384-32.384 32.384 32.384 0 0 0-32.384 32.384 97.173 97.173 0 0 1-97.173 97.163 97.173 97.173 0 0 1-97.173-97.163 32.384 32.384 0 0 0-16.192-28.053 32.384 32.384 0 0 0-32.395 0 32.384 32.384 0 0 0-16.192 28.053zm0 0" fill="#333333"></path></svg>