<svg class="plugin_svg__icon" viewBox="0 0 1137 1024" xmlns="http://www.w3.org/2000/svg" width="16" height="16"><path d="m0 506.51 91.917 51.056v-335.01L0 279.745V506.51z" fill="#333333"></path><path d="M73.04 234.344v312.708l18.877 10.514v-335.01L73.04 234.344z" fill="#333333"></path><path d="M629.24 61.98v634.975c0 60.773 232.898 77.659 232.898 46.994V15.066c.239-30.904-232.898-13.78-232.898 46.914z" fill="#333333"></path><path d="M838.402 2.402v754.37c14.735-2.39 23.895-6.61 23.895-12.664V15.066c.08-6.133-9.16-10.275-23.895-12.664z" fill="#333333"></path><path d="m931.462 512.535 19.159-15.322q13.56-10.845 24.405 2.716l100.787 126.028q10.845 13.56-2.716 24.405l-19.159 15.322q-13.56 10.845-24.406-2.716L928.746 536.941q-10.845-13.561 2.716-24.406ZM928.807 175.265l100.787-126.029q10.845-13.56 24.405-2.716l19.16 15.322q13.56 10.845 2.716 24.406L975.088 212.276q-10.845 13.56-24.406 2.716l-19.159-15.322q-13.56-10.845-2.716-24.406ZM941.0920000000001 372.471l.039-24.532q.027-17.364 17.39-17.336l161.373.253q17.364.027 17.336 17.391l-.038 24.533q-.028 17.363-17.391 17.336l-161.372-.253q-17.364-.028-17.337-17.392Z" fill="#333333"></path><path d="m113.183 554.858 93.43 14.895 104.82 389.013a89.448 89.448 0 0 0 67.863 62.367l-47.153-431.627z" fill="#333333"></path><path d="m599.37 632.278-253.766-40.382 148.23 386.544a86.42 86.42 0 0 0 14.098-72.562l-81.085-300.92 172.524 27.56z" fill="#333333"></path><path d="m332.143 589.506 47.153 431.388a111.033 111.033 0 0 0 54.003-1.036 108.245 108.245 0 0 0 60.535-41.657l-148.23-386.305z" fill="#333333"></path><path d="M374.358 392.052c-116.37-52.012-197.454-63.72-260.936-55.038v217.844l485.869 77.42V441.117c-56.87 5.018-131.344-7.01-224.933-49.065z" fill="#333333"></path><path d="M113.183 219.848v117.166c63.72-8.603 144.566 3.026 260.936 55.038 93.828 42.056 168.301 54.083 225.252 49.065V144.259z" fill="#333333"></path></svg>